<mxfile host="app.diagrams.net" modified="2023-10-12T15:50:26.831Z" agent="Mozilla/5.0 (X11; Ubuntu; Linux x86_64; rv:109.0) Gecko/20100101 Firefox/116.0" etag="F0fooeEUF1i0a13-NImh" version="22.0.4" type="device">
  <diagram name="Page-1" id="daGm-d5KecSEp1XgCP-V">
    <mxGraphModel dx="1164" dy="773" grid="1" gridSize="10" guides="1" tooltips="1" connect="1" arrows="1" fold="1" page="1" pageScale="1" pageWidth="850" pageHeight="1100" background="none" math="0" shadow="0">
      <root>
        <mxCell id="0" />
        <mxCell id="1" parent="0" />
        <mxCell id="cbzeHhdR3mQzWy2dV4Z3-1" value="User" style="shape=umlActor;verticalLabelPosition=bottom;verticalAlign=top;html=1;outlineConnect=0;" parent="1" vertex="1">
          <mxGeometry x="480" y="550" width="30" height="60" as="geometry" />
        </mxCell>
        <mxCell id="cbzeHhdR3mQzWy2dV4Z3-3" value="&lt;div&gt;Cluster&lt;/div&gt;" style="rounded=0;whiteSpace=wrap;html=1;fillColor=none;dashed=1;comic=0;movableLabel=0;" parent="1" vertex="1">
          <mxGeometry x="140" y="110" width="610" height="410" as="geometry">
            <mxPoint x="-277" y="-194" as="offset" />
          </mxGeometry>
        </mxCell>
        <mxCell id="cbzeHhdR3mQzWy2dV4Z3-4" value="Node" style="rounded=0;whiteSpace=wrap;html=1;fillColor=none;container=0;metaEdit=0;movableLabel=0;noLabel=0;" parent="1" vertex="1">
          <mxGeometry x="150" y="150" width="560" height="360" as="geometry">
            <mxPoint x="-263" y="-167" as="offset" />
          </mxGeometry>
        </mxCell>
        <mxCell id="cbzeHhdR3mQzWy2dV4Z3-5" value="Pod" style="rounded=1;whiteSpace=wrap;html=1;arcSize=12;movableLabel=1;fillColor=none;" parent="1" vertex="1">
          <mxGeometry x="470" y="354" width="230" height="120" as="geometry">
            <mxPoint x="-84" y="-39" as="offset" />
          </mxGeometry>
        </mxCell>
        <mxCell id="cbzeHhdR3mQzWy2dV4Z3-6" value="Vault Container" style="shape=cube;whiteSpace=wrap;html=1;boundedLbl=1;backgroundOutline=1;darkOpacity=0.05;darkOpacity2=0.1;size=10;movableLabel=1;fillColor=#62a0ea;strokeColor=#000000;" parent="1" vertex="1">
          <mxGeometry x="530" y="384" width="145" height="80" as="geometry" />
        </mxCell>
        <mxCell id="cbzeHhdR3mQzWy2dV4Z3-7" value="&lt;div&gt;container&lt;/div&gt;&lt;div&gt;runtime&lt;br&gt;&lt;/div&gt;" style="image;sketch=0;aspect=fixed;html=1;points=[];align=center;fontSize=12;image=img/lib/mscae/Docker.svg;" parent="1" vertex="1">
          <mxGeometry x="650" y="160" width="50" height="41" as="geometry" />
        </mxCell>
        <mxCell id="cbzeHhdR3mQzWy2dV4Z3-8" value="kubelet" style="sketch=0;html=1;dashed=0;whitespace=wrap;fillColor=#2875E2;strokeColor=default;points=[[0.005,0.63,0],[0.1,0.2,0],[0.9,0.2,0],[0.5,0,0],[0.995,0.63,0],[0.72,0.99,0],[0.5,1,0],[0.28,0.99,0]];verticalLabelPosition=bottom;align=center;verticalAlign=top;shape=mxgraph.kubernetes.icon;prIcon=kubelet" parent="1" vertex="1">
          <mxGeometry x="380" y="170" width="50" height="48" as="geometry" />
        </mxCell>
        <mxCell id="cbzeHhdR3mQzWy2dV4Z3-9" value="kube proxy" style="sketch=0;html=1;dashed=0;whitespace=wrap;fillColor=#2875E2;strokeColor=default;points=[[0.005,0.63,0],[0.1,0.2,0],[0.9,0.2,0],[0.5,0,0],[0.995,0.63,0],[0.72,0.99,0],[0.5,1,0],[0.28,0.99,0]];verticalLabelPosition=bottom;align=center;verticalAlign=top;shape=mxgraph.kubernetes.icon;prIcon=k_proxy" parent="1" vertex="1">
          <mxGeometry x="480" y="170" width="50" height="48" as="geometry" />
        </mxCell>
        <mxCell id="cbzeHhdR3mQzWy2dV4Z3-10" value="api server" style="sketch=0;html=1;dashed=0;whitespace=wrap;fillColor=#2875E2;strokeColor=default;points=[[0.005,0.63,0],[0.1,0.2,0],[0.9,0.2,0],[0.5,0,0],[0.995,0.63,0],[0.72,0.99,0],[0.5,1,0],[0.28,0.99,0]];verticalLabelPosition=bottom;align=center;verticalAlign=top;shape=mxgraph.kubernetes.icon;prIcon=api" parent="1" vertex="1">
          <mxGeometry x="380" y="416" width="50" height="48" as="geometry" />
        </mxCell>
        <mxCell id="cbzeHhdR3mQzWy2dV4Z3-16" style="edgeStyle=orthogonalEdgeStyle;rounded=0;orthogonalLoop=1;jettySize=auto;html=1;endArrow=none;endFill=0;" parent="1" source="cbzeHhdR3mQzWy2dV4Z3-11" target="cbzeHhdR3mQzWy2dV4Z3-10" edge="1">
          <mxGeometry relative="1" as="geometry" />
        </mxCell>
        <mxCell id="cbzeHhdR3mQzWy2dV4Z3-11" value="kubectl" style="rounded=0;whiteSpace=wrap;html=1;fillColor=none;" parent="1" vertex="1">
          <mxGeometry x="302.5" y="570" width="65" height="20" as="geometry" />
        </mxCell>
        <mxCell id="cbzeHhdR3mQzWy2dV4Z3-12" value="etcd" style="sketch=0;html=1;dashed=0;whitespace=wrap;fillColor=#2875E2;strokeColor=default;points=[[0.005,0.63,0],[0.1,0.2,0],[0.9,0.2,0],[0.5,0,0],[0.995,0.63,0],[0.72,0.99,0],[0.5,1,0],[0.28,0.99,0]];verticalLabelPosition=bottom;align=center;verticalAlign=top;shape=mxgraph.kubernetes.icon;prIcon=etcd" parent="1" vertex="1">
          <mxGeometry x="170" y="253" width="50" height="48" as="geometry" />
        </mxCell>
        <mxCell id="cbzeHhdR3mQzWy2dV4Z3-13" value="scheduler" style="sketch=0;html=1;dashed=0;whitespace=wrap;fillColor=#2875E2;strokeColor=default;points=[[0.005,0.63,0],[0.1,0.2,0],[0.9,0.2,0],[0.5,0,0],[0.995,0.63,0],[0.72,0.99,0],[0.5,1,0],[0.28,0.99,0]];verticalLabelPosition=bottom;align=center;verticalAlign=top;shape=mxgraph.kubernetes.icon;prIcon=sched" parent="1" vertex="1">
          <mxGeometry x="170" y="336" width="50" height="48" as="geometry" />
        </mxCell>
        <mxCell id="cbzeHhdR3mQzWy2dV4Z3-14" value="&lt;div&gt;controller&lt;/div&gt;&lt;div&gt;manager&lt;br&gt;&lt;/div&gt;" style="sketch=0;html=1;dashed=0;whitespace=wrap;fillColor=#2875E2;strokeColor=default;points=[[0.005,0.63,0],[0.1,0.2,0],[0.9,0.2,0],[0.5,0,0],[0.995,0.63,0],[0.72,0.99,0],[0.5,1,0],[0.28,0.99,0]];verticalLabelPosition=bottom;align=center;verticalAlign=top;shape=mxgraph.kubernetes.icon;prIcon=c_m" parent="1" vertex="1">
          <mxGeometry x="170" y="416" width="50" height="48" as="geometry" />
        </mxCell>
        <mxCell id="cbzeHhdR3mQzWy2dV4Z3-17" style="edgeStyle=orthogonalEdgeStyle;rounded=0;orthogonalLoop=1;jettySize=auto;html=1;entryX=0;entryY=0.5;entryDx=0;entryDy=0;endArrow=none;endFill=0;" parent="1" source="cbzeHhdR3mQzWy2dV4Z3-28" target="cbzeHhdR3mQzWy2dV4Z3-23" edge="1">
          <mxGeometry relative="1" as="geometry">
            <Array as="points">
              <mxPoint x="460" y="300" />
              <mxPoint x="555" y="300" />
            </Array>
          </mxGeometry>
        </mxCell>
        <mxCell id="cbzeHhdR3mQzWy2dV4Z3-19" style="edgeStyle=orthogonalEdgeStyle;rounded=0;orthogonalLoop=1;jettySize=auto;html=1;exitX=0.005;exitY=0.63;exitDx=0;exitDy=0;exitPerimeter=0;entryX=0.995;entryY=0.63;entryDx=0;entryDy=0;entryPerimeter=0;anchorPointDirection=1;startFill=1;strokeColor=default;endArrow=none;endFill=0;" parent="1" source="cbzeHhdR3mQzWy2dV4Z3-10" target="cbzeHhdR3mQzWy2dV4Z3-14" edge="1">
          <mxGeometry relative="1" as="geometry" />
        </mxCell>
        <mxCell id="cbzeHhdR3mQzWy2dV4Z3-21" style="edgeStyle=orthogonalEdgeStyle;rounded=0;orthogonalLoop=1;jettySize=auto;html=1;exitX=0.5;exitY=0;exitDx=0;exitDy=0;exitPerimeter=0;entryX=0.995;entryY=0.63;entryDx=0;entryDy=0;entryPerimeter=0;endArrow=none;endFill=0;" parent="1" source="cbzeHhdR3mQzWy2dV4Z3-10" target="cbzeHhdR3mQzWy2dV4Z3-13" edge="1">
          <mxGeometry relative="1" as="geometry">
            <Array as="points">
              <mxPoint x="405" y="366" />
            </Array>
          </mxGeometry>
        </mxCell>
        <mxCell id="cbzeHhdR3mQzWy2dV4Z3-22" style="edgeStyle=orthogonalEdgeStyle;rounded=0;orthogonalLoop=1;jettySize=auto;html=1;exitX=0.5;exitY=0;exitDx=0;exitDy=0;exitPerimeter=0;entryX=0.995;entryY=0.63;entryDx=0;entryDy=0;entryPerimeter=0;endArrow=none;endFill=0;" parent="1" source="cbzeHhdR3mQzWy2dV4Z3-10" target="cbzeHhdR3mQzWy2dV4Z3-12" edge="1">
          <mxGeometry relative="1" as="geometry">
            <Array as="points">
              <mxPoint x="405" y="283" />
            </Array>
          </mxGeometry>
        </mxCell>
        <mxCell id="cbzeHhdR3mQzWy2dV4Z3-24" style="edgeStyle=orthogonalEdgeStyle;rounded=0;orthogonalLoop=1;jettySize=auto;html=1;exitX=0.5;exitY=1;exitDx=0;exitDy=0;entryX=0.5;entryY=0;entryDx=0;entryDy=0;endArrow=none;endFill=0;" parent="1" source="cbzeHhdR3mQzWy2dV4Z3-30" target="cbzeHhdR3mQzWy2dV4Z3-5" edge="1">
          <mxGeometry relative="1" as="geometry" />
        </mxCell>
        <mxCell id="cbzeHhdR3mQzWy2dV4Z3-23" value="Service" style="rounded=0;whiteSpace=wrap;html=1;fillColor=none;" parent="1" vertex="1">
          <mxGeometry x="555" y="287" width="60" height="25" as="geometry" />
        </mxCell>
        <mxCell id="cbzeHhdR3mQzWy2dV4Z3-25" style="edgeStyle=orthogonalEdgeStyle;rounded=0;orthogonalLoop=1;jettySize=auto;html=1;exitX=0.5;exitY=0;exitDx=0;exitDy=0;exitPerimeter=0;entryX=0.5;entryY=1;entryDx=0;entryDy=0;entryPerimeter=0;endArrow=none;endFill=0;" parent="1" source="cbzeHhdR3mQzWy2dV4Z3-10" target="cbzeHhdR3mQzWy2dV4Z3-8" edge="1">
          <mxGeometry relative="1" as="geometry" />
        </mxCell>
        <mxCell id="cbzeHhdR3mQzWy2dV4Z3-27" style="edgeStyle=orthogonalEdgeStyle;rounded=0;orthogonalLoop=1;jettySize=auto;html=1;entryX=0.005;entryY=0.63;entryDx=0;entryDy=0;entryPerimeter=0;endArrow=none;endFill=0;exitX=0.5;exitY=0;exitDx=0;exitDy=0;exitPerimeter=0;" parent="1" source="cbzeHhdR3mQzWy2dV4Z3-10" target="cbzeHhdR3mQzWy2dV4Z3-9" edge="1">
          <mxGeometry relative="1" as="geometry">
            <mxPoint x="405" y="420" as="sourcePoint" />
            <Array as="points">
              <mxPoint x="405" y="330" />
              <mxPoint x="450" y="330" />
              <mxPoint x="450" y="200" />
            </Array>
          </mxGeometry>
        </mxCell>
        <mxCell id="cbzeHhdR3mQzWy2dV4Z3-29" value="" style="edgeStyle=orthogonalEdgeStyle;rounded=0;orthogonalLoop=1;jettySize=auto;html=1;exitX=0.995;exitY=0.63;exitDx=0;exitDy=0;exitPerimeter=0;entryX=0.5;entryY=0;entryDx=0;entryDy=0;endArrow=none;endFill=0;" parent="1" source="cbzeHhdR3mQzWy2dV4Z3-9" target="cbzeHhdR3mQzWy2dV4Z3-23" edge="1">
          <mxGeometry relative="1" as="geometry">
            <mxPoint x="560" y="220" as="sourcePoint" />
            <mxPoint x="585" y="287" as="targetPoint" />
          </mxGeometry>
        </mxCell>
        <mxCell id="cbzeHhdR3mQzWy2dV4Z3-30" value="8200" style="text;html=1;strokeColor=none;fillColor=none;align=center;verticalAlign=middle;whiteSpace=wrap;rounded=0;" parent="1" vertex="1">
          <mxGeometry x="570" y="312" width="30" height="20" as="geometry" />
        </mxCell>
        <mxCell id="owWRNJUSUV1AwwsD3CPz-1" value="" style="edgeStyle=orthogonalEdgeStyle;rounded=0;orthogonalLoop=1;jettySize=auto;html=1;entryX=0;entryY=0.5;entryDx=0;entryDy=0;endArrow=none;endFill=0;" edge="1" parent="1" source="cbzeHhdR3mQzWy2dV4Z3-1" target="cbzeHhdR3mQzWy2dV4Z3-28">
          <mxGeometry relative="1" as="geometry">
            <Array as="points">
              <mxPoint x="460" y="580" />
            </Array>
            <mxPoint x="480" y="580" as="sourcePoint" />
            <mxPoint x="555" y="300" as="targetPoint" />
          </mxGeometry>
        </mxCell>
        <mxCell id="cbzeHhdR3mQzWy2dV4Z3-28" value="8200" style="text;html=1;strokeColor=none;fillColor=default;align=center;verticalAlign=middle;whiteSpace=wrap;rounded=0;" parent="1" vertex="1">
          <mxGeometry x="444" y="511" width="30" height="20" as="geometry" />
        </mxCell>
      </root>
    </mxGraphModel>
  </diagram>
</mxfile>
